<svg width="426" height="427" viewBox="0 0 426 427" fill="none" xmlns="http://www.w3.org/2000/svg">
<path d="M403 214C403 318.934 317.932 404 212.997 404C108.068 404 23 318.934 23 214C23 109.066 108.068 24 212.997 24C317.932 24 403 109.066 403 214" stroke="url(#paint0_radial)" stroke-width="2"/>
<path d="M343 214C343 285.797 284.796 344 212.998 344C141.204 344 83 285.797 83 214C83 142.203 141.204 84 212.998 84C284.796 84 343 142.203 343 214" stroke="url(#paint1_radial)" stroke-width="2"/>
<circle cx="213.982" cy="23.6201" r="23" fill="#00B2A9"/>
<rect opacity="0.01" x="199.982" y="8.12006" width="28.0851" height="28.0851" fill="black"/>
<path d="M214.024 20.8252C216.609 20.8252 218.705 18.7295 218.705 16.1444C218.705 13.5592 216.609 11.4635 214.024 11.4635C211.439 11.4635 209.343 13.5592 209.343 16.1444C209.343 18.7295 211.439 20.8252 214.024 20.8252Z" fill="white"/>
<path d="M221.523 32.8617C222.183 32.8617 222.717 32.3378 222.717 31.6915C222.717 27.1675 218.975 23.5 214.359 23.5C209.742 23.5 206 27.1675 206 31.6915C206 32.3378 206.535 32.8617 207.194 32.8617H221.523Z" fill="white"/>
<circle cx="362" cy="340" r="23" fill="#00B2A9"/>
<rect opacity="0.01" x="348" y="324.5" width="28.0851" height="28.0851" fill="black"/>
<path d="M362.043 337.205C364.628 337.205 366.723 335.109 366.723 332.524C366.723 329.939 364.628 327.843 362.043 327.843C359.457 327.843 357.362 329.939 357.362 332.524C357.362 335.109 359.457 337.205 362.043 337.205Z" fill="white"/>
<path d="M369.541 349.242C370.201 349.242 370.736 348.718 370.736 348.071C370.736 343.547 366.993 339.88 362.377 339.88C357.761 339.88 354.018 343.547 354.018 348.071C354.018 348.718 354.553 349.242 355.212 349.242H369.541Z" fill="white"/>
<circle cx="213" cy="404" r="23" fill="#00B2A9"/>
<rect opacity="0.01" x="199" y="389" width="28.0851" height="28.0851" fill="black"/>
<path d="M213.043 401.705C215.628 401.705 217.723 399.609 217.723 397.024C217.723 394.439 215.628 392.343 213.043 392.343C210.457 392.343 208.362 394.439 208.362 397.024C208.362 399.609 210.457 401.705 213.043 401.705Z" fill="white"/>
<path d="M220.541 413.742C221.201 413.742 221.736 413.218 221.736 412.571C221.736 408.047 217.993 404.38 213.377 404.38C208.761 404.38 205.018 408.047 205.018 412.571C205.018 413.218 205.553 413.742 206.212 413.742H220.541Z" fill="white"/>
<circle cx="66" cy="340" r="23" fill="#00B2A9"/>
<rect opacity="0.01" x="52" y="324.5" width="28.0851" height="28.0851" fill="black"/>
<path d="M66.0425 337.205C68.6277 337.205 70.7234 335.109 70.7234 332.524C70.7234 329.939 68.6277 327.843 66.0425 327.843C63.4574 327.843 61.3617 329.939 61.3617 332.524C61.3617 335.109 63.4574 337.205 66.0425 337.205Z" fill="white"/>
<path d="M73.5415 349.242C74.2009 349.242 74.7356 348.718 74.7356 348.071C74.7356 343.547 70.9933 339.88 66.3769 339.88C61.7605 339.88 58.0182 343.547 58.0182 348.071C58.0182 348.718 58.5528 349.242 59.2123 349.242H73.5415Z" fill="white"/>
<circle cx="66" cy="88" r="23" fill="#00B2A9"/>
<rect opacity="0.01" x="52" y="72.5" width="28.0851" height="28.0851" fill="black"/>
<path d="M66.0425 85.2052C68.6277 85.2052 70.7234 83.1095 70.7234 80.5243C70.7234 77.9391 68.6277 75.8435 66.0425 75.8435C63.4574 75.8435 61.3617 77.9391 61.3617 80.5243C61.3617 83.1095 63.4574 85.2052 66.0425 85.2052Z" fill="white"/>
<path d="M73.5415 97.2416C74.2009 97.2416 74.7356 96.7177 74.7356 96.0714C74.7356 91.5474 70.9933 87.8799 66.3769 87.8799C61.7605 87.8799 58.0182 91.5474 58.0182 96.0714C58.0182 96.7177 58.5528 97.2416 59.2123 97.2416H73.5415Z" fill="white"/>
<circle cx="362" cy="88" r="23" fill="#00B2A9"/>
<rect opacity="0.01" x="348" y="72.5" width="28.0851" height="28.0851" fill="black"/>
<path d="M362.043 85.2052C364.628 85.2052 366.723 83.1095 366.723 80.5243C366.723 77.9391 364.628 75.8435 362.043 75.8435C359.457 75.8435 357.362 77.9391 357.362 80.5243C357.362 83.1095 359.457 85.2052 362.043 85.2052Z" fill="white"/>
<path d="M369.541 97.2416C370.201 97.2416 370.736 96.7177 370.736 96.0714C370.736 91.5474 366.993 87.8799 362.377 87.8799C357.761 87.8799 354.018 91.5474 354.018 96.0714C354.018 96.7177 354.553 97.2416 355.212 97.2416H369.541Z" fill="white"/>
<circle cx="23" cy="214" r="23" fill="#00B2A9"/>
<rect opacity="0.01" x="9" y="198.5" width="28.0851" height="28.0851" fill="black"/>
<path d="M23.0425 211.205C25.6277 211.205 27.7234 209.109 27.7234 206.524C27.7234 203.939 25.6277 201.843 23.0425 201.843C20.4574 201.843 18.3617 203.939 18.3617 206.524C18.3617 209.109 20.4574 211.205 23.0425 211.205Z" fill="white"/>
<path d="M30.5415 223.242C31.2009 223.242 31.7356 222.718 31.7356 222.071C31.7356 217.547 27.9933 213.88 23.3769 213.88C18.7605 213.88 15.0182 217.547 15.0182 222.071C15.0182 222.718 15.5528 223.242 16.2123 223.242H30.5415Z" fill="white"/>
<circle cx="403" cy="214" r="23" fill="#00B2A9"/>
<rect opacity="0.01" x="389" y="198.5" width="28.0851" height="28.0851" fill="black"/>
<path d="M403.043 211.205C405.628 211.205 407.723 209.109 407.723 206.524C407.723 203.939 405.628 201.843 403.043 201.843C400.457 201.843 398.362 203.939 398.362 206.524C398.362 209.109 400.457 211.205 403.043 211.205Z" fill="white"/>
<path d="M410.541 223.242C411.201 223.242 411.736 222.718 411.736 222.071C411.736 217.547 407.993 213.88 403.377 213.88C398.761 213.88 395.018 217.547 395.018 222.071C395.018 222.718 395.553 223.242 396.212 223.242H410.541Z" fill="white"/>
<g filter="url(#filter0_d)">
<circle cx="175" cy="214" r="46" fill="white"/>
</g>
<path fill-rule="evenodd" clip-rule="evenodd" d="M175.475 191C176.844 193.62 178.057 195.994 179.321 198.339C180.084 199.752 180.292 199.8 181.649 199.058C182.691 198.487 183.705 197.865 185.015 197.101C184.307 200.791 183.666 204.146 183.019 207.5C182.85 208.374 182.64 209.239 182.499 210.117C182.433 210.534 182.307 211.055 182.834 211.287C183.289 211.488 183.657 211.289 183.998 210.917C185.287 209.512 186.602 208.129 187.916 206.748C188.264 206.382 188.647 206.05 189.078 205.642C189.63 206.188 189.748 206.895 190.026 207.495C190.826 209.217 190.802 209.229 192.559 208.848C193.921 208.554 195.281 208.248 196.647 207.972C197.067 207.886 197.507 207.707 198.088 208.07C197.874 209.58 197.239 211.029 196.762 212.512C195.772 215.587 195.75 215.579 198.554 216.97C198.663 217.024 198.747 217.128 199 217.342C197.023 218.95 195.074 220.537 193.124 222.122C191.447 223.484 189.767 224.841 188.092 226.205C186.982 227.108 186.596 227.57 187.299 228.941C187.728 229.777 187.936 230.727 188.287 231.756C187.066 232.011 185.998 231.585 184.931 231.417C182.493 231.032 180.074 230.531 177.642 230.104C174.492 229.551 171.471 230.492 168.413 230.966C166.546 231.256 164.691 231.62 162.555 232C162.965 230.797 163.218 229.774 163.658 228.84C164.15 227.798 163.965 227.141 163.05 226.421C159.908 223.948 156.826 221.4 153.738 218.859C153.156 218.379 152.473 217.998 152 217.257C152.492 216.751 153.155 216.584 153.759 216.303C154.982 215.734 155.073 215.535 154.676 214.251C154.025 212.146 153.348 210.049 152.627 207.773C154.611 207.892 156.299 208.458 158.021 208.804C160.147 209.23 160.138 209.279 160.98 207.292C161.199 206.774 161.415 206.254 161.715 205.537C163.432 206.955 164.622 208.699 166.131 210.114C166.665 210.614 167.014 211.645 167.885 211.272C168.923 210.827 168.304 209.804 168.171 209.073C167.524 205.508 166.802 201.957 166.107 198.4C166.046 198.09 165.955 197.777 166.191 197.423C167.292 197.718 168.176 198.469 169.169 198.999C170.674 199.802 170.91 199.756 171.666 198.276C172.88 195.898 173.969 193.455 175.475 191" fill="#E3292B"/>
<circle cx="252" cy="214" r="46" fill="#0072CE"/>
<path fill-rule="evenodd" clip-rule="evenodd" d="M249.382 191.381C250.405 189.399 252.657 188.728 254.413 189.882C256.168 191.038 256.763 193.581 255.74 195.564C254.717 197.546 252.465 198.217 250.709 197.063C248.954 195.907 248.359 193.364 249.382 191.381ZM242.023 204.472C243.045 202.688 245.298 202.083 247.053 203.123C248.809 204.163 249.403 206.452 248.381 208.236C247.358 210.021 245.106 210.625 243.35 209.585C241.594 208.546 241 206.256 242.023 204.472ZM236.243 216.731C237.152 215.145 239.154 214.609 240.715 215.533C242.276 216.457 242.804 218.491 241.895 220.077C240.986 221.663 238.984 222.201 237.423 221.277C235.862 220.353 235.334 218.318 236.243 216.731ZM242.729 227.329C243.524 225.941 245.276 225.472 246.642 226.28C248.008 227.088 248.47 228.869 247.674 230.257C246.879 231.645 245.127 232.115 243.762 231.306C242.396 230.497 241.934 228.718 242.729 227.329ZM228.828 229.822C229.624 228.435 231.376 227.965 232.741 228.773C234.107 229.582 234.569 231.362 233.773 232.75C232.978 234.139 231.226 234.608 229.861 233.799C228.495 232.991 228.033 231.21 228.828 229.822ZM275.261 228.773C273.896 227.965 272.144 228.435 271.348 229.822C270.553 231.21 271.015 232.991 272.381 233.799C273.746 234.608 275.498 234.139 276.294 232.75C277.089 231.362 276.627 229.582 275.261 228.773ZM268.517 215.533C266.956 214.609 264.954 215.145 264.045 216.731C263.136 218.318 263.664 220.353 265.225 221.277C266.785 222.201 268.787 221.663 269.696 220.077C270.605 218.491 270.077 216.457 268.517 215.533ZM261.772 203.123C260.017 202.083 257.764 202.688 256.741 204.472C255.719 206.256 256.312 208.546 258.069 209.585C259.824 210.625 262.077 210.021 263.099 208.236C264.122 206.452 263.528 204.163 261.772 203.123ZM261.36 226.28C259.995 225.472 258.243 225.941 257.448 227.329C256.652 228.718 257.114 230.497 258.48 231.306C259.846 232.115 261.597 231.645 262.393 230.257C263.188 228.869 262.726 227.088 261.36 226.28Z" fill="white"/>
<defs>
<filter id="filter0_d" x="125" y="164" width="100" height="100" filterUnits="userSpaceOnUse" color-interpolation-filters="sRGB">
<feFlood flood-opacity="0" result="BackgroundImageFix"/>
<feColorMatrix in="SourceAlpha" type="matrix" values="0 0 0 0 0 0 0 0 0 0 0 0 0 0 0 0 0 0 127 0"/>
<feOffset/>
<feGaussianBlur stdDeviation="2"/>
<feColorMatrix type="matrix" values="0 0 0 0 0 0 0 0 0 0 0 0 0 0 0 0 0 0 0.105551 0"/>
<feBlend mode="normal" in2="BackgroundImageFix" result="effect1_dropShadow"/>
<feBlend mode="normal" in="SourceGraphic" in2="effect1_dropShadow" result="shape"/>
</filter>
<radialGradient id="paint0_radial" cx="0" cy="0" r="1" gradientUnits="userSpaceOnUse" gradientTransform="translate(222.766 214) rotate(-45) scale(537.401)">
<stop stop-color="#455877"/>
<stop offset="1" stop-color="#041C2C"/>
</radialGradient>
<radialGradient id="paint1_radial" cx="0" cy="0" r="1" gradientUnits="userSpaceOnUse" gradientTransform="translate(219.297 214) rotate(-44.1854) scale(503.969)">
<stop stop-color="#455877"/>
<stop offset="1" stop-color="#041C2C"/>
</radialGradient>
</defs>
</svg>
