<svg width="421" height="378" viewBox="0 0 421 378" fill="none" xmlns="http://www.w3.org/2000/svg">
<path d="M212 191L306 354" stroke="url(#paint0_linear)" stroke-width="2"/>
<path d="M211 188L115 355" stroke="url(#paint1_linear)" stroke-width="2"/>
<path d="M211 187H398" stroke="url(#paint2_linear)" stroke-width="2"/>
<path d="M211 187L306 23" stroke="url(#paint3_linear)" stroke-width="2"/>
<path d="M210 187L112 20" stroke="url(#paint4_linear)" stroke-width="2"/>
<path d="M210 188L23 189" stroke="url(#paint5_linear)" stroke-width="2"/>
<path fill-rule="evenodd" clip-rule="evenodd" d="M265.159 188.686C265.159 219.44 240.723 244.371 210.579 244.371C180.437 244.371 156 219.44 156 188.686C156 157.931 180.437 133 210.579 133C240.723 133 265.159 157.931 265.159 188.686" fill="#0072CE"/>
<path fill-rule="evenodd" clip-rule="evenodd" d="M198.077 200.394C199.092 198.598 201.33 197.992 203.074 199.037C204.819 200.083 205.409 202.387 204.393 204.183C203.377 205.979 201.14 206.587 199.395 205.54C197.651 204.494 197.061 202.191 198.077 200.394" fill="white"/>
<path fill-rule="evenodd" clip-rule="evenodd" d="M181.02 203.966C181.968 202.291 184.057 201.723 185.684 202.699C187.313 203.676 187.864 205.826 186.915 207.502C185.967 209.179 183.879 209.745 182.251 208.769C180.623 207.793 180.072 205.642 181.02 203.966" fill="white"/>
<path fill-rule="evenodd" clip-rule="evenodd" d="M232.821 203.966C233.77 202.291 235.858 201.723 237.486 202.699C239.114 203.676 239.665 205.826 238.717 207.502C237.768 209.179 235.68 209.745 234.052 208.769C232.424 207.793 231.873 205.642 232.821 203.966" fill="white"/>
<path fill-rule="evenodd" clip-rule="evenodd" d="M189.232 188.453C190.316 186.537 192.703 185.889 194.564 187.006C196.424 188.121 197.054 190.578 195.97 192.494C194.886 194.409 192.499 195.058 190.639 193.943C188.778 192.826 188.149 190.37 189.232 188.453" fill="white"/>
<path fill-rule="evenodd" clip-rule="evenodd" d="M223.767 188.453C224.85 186.537 227.237 185.889 229.098 187.006C230.958 188.121 231.588 190.578 230.504 192.494C229.42 194.409 227.034 195.058 225.173 193.943C223.313 192.826 222.683 190.37 223.767 188.453" fill="white"/>
<path fill-rule="evenodd" clip-rule="evenodd" d="M197.445 172.94C198.664 170.785 201.35 170.056 203.442 171.311C205.536 172.567 206.244 175.331 205.024 177.486C203.805 179.641 201.12 180.371 199.027 179.115C196.934 177.86 196.226 175.095 197.445 172.94" fill="white"/>
<path fill-rule="evenodd" clip-rule="evenodd" d="M214.712 172.94C215.932 170.785 218.617 170.056 220.71 171.311C222.803 172.567 223.511 175.331 222.292 177.486C221.072 179.641 218.387 180.371 216.294 179.115C214.201 177.86 213.493 175.095 214.712 172.94" fill="white"/>
<path fill-rule="evenodd" clip-rule="evenodd" d="M205.657 157.427C207.012 155.033 209.996 154.222 212.321 155.617C214.646 157.012 215.434 160.084 214.079 162.478C212.725 164.873 209.741 165.683 207.416 164.289C205.09 162.893 204.303 159.822 205.657 157.427" fill="white"/>
<path fill-rule="evenodd" clip-rule="evenodd" d="M215.344 200.394C216.36 198.598 218.597 197.992 220.341 199.037C222.086 200.083 222.676 202.387 221.66 204.183C220.644 205.979 218.407 206.587 216.662 205.54C214.918 204.494 214.328 202.191 215.344 200.394" fill="white"/>
<circle cx="155" cy="94" r="18" fill="white"/>
<path fill-rule="evenodd" clip-rule="evenodd" d="M153.831 100L148.329 95.9715C147.589 95.4297 147.415 94.3973 147.936 93.6427V93.6427C148.479 92.8568 149.565 92.6753 150.334 93.2418L153.297 95.4246L159.365 88.3128C159.979 87.5927 161.066 87.5191 161.771 88.1498V88.1498C162.455 88.7603 162.525 89.8044 161.931 90.5015L153.831 100Z" fill="#0072CE"/>
<circle cx="266" cy="94" r="18" fill="white"/>
<path fill-rule="evenodd" clip-rule="evenodd" d="M264.831 100L259.329 95.9715C258.589 95.4297 258.415 94.3973 258.936 93.6427V93.6427C259.479 92.8568 260.565 92.6753 261.334 93.2418L264.297 95.4246L270.365 88.3128C270.979 87.5927 272.066 87.5191 272.771 88.1498V88.1498C273.455 88.7603 273.525 89.8044 272.931 90.5015L264.831 100Z" fill="#0072CE"/>
<circle cx="321" cy="189" r="18" fill="white"/>
<path fill-rule="evenodd" clip-rule="evenodd" d="M319.831 195L314.329 190.971C313.589 190.43 313.415 189.397 313.936 188.643V188.643C314.479 187.857 315.565 187.675 316.334 188.242L319.297 190.425L325.365 183.313C325.979 182.593 327.066 182.519 327.771 183.15V183.15C328.455 183.76 328.525 184.804 327.931 185.502L319.831 195Z" fill="#0072CE"/>
<circle cx="98" cy="189" r="18" fill="white"/>
<path fill-rule="evenodd" clip-rule="evenodd" d="M96.8308 195L91.3292 190.971C90.5893 190.43 90.4151 189.397 90.9364 188.643V188.643C91.4794 187.857 92.5647 187.675 93.3338 188.242L96.2975 190.425L102.365 183.313C102.979 182.593 104.066 182.519 104.771 183.15V183.15C105.455 183.76 105.525 184.804 104.931 185.502L96.8308 195Z" fill="#0072CE"/>
<circle cx="155" cy="284" r="18" fill="white"/>
<path fill-rule="evenodd" clip-rule="evenodd" d="M153.831 290L148.329 285.971C147.589 285.43 147.415 284.397 147.936 283.643V283.643C148.479 282.857 149.565 282.675 150.334 283.242L153.297 285.425L159.365 278.313C159.979 277.593 161.066 277.519 161.771 278.15V278.15C162.455 278.76 162.525 279.804 161.931 280.502L153.831 290Z" fill="#0072CE"/>
<circle cx="266" cy="284" r="18" fill="white"/>
<path fill-rule="evenodd" clip-rule="evenodd" d="M264.831 290L259.329 285.971C258.589 285.43 258.415 284.397 258.936 283.643V283.643C259.479 282.857 260.565 282.675 261.334 283.242L264.297 285.425L270.365 278.313C270.979 277.593 272.066 277.519 272.771 278.15V278.15C273.455 278.76 273.525 279.804 272.931 280.502L264.831 290Z" fill="#0072CE"/>
<circle cx="115" cy="23.5" r="23" fill="#00B2A9"/>
<rect opacity="0.01" x="101" y="8" width="28.0851" height="28.0851" fill="black"/>
<path d="M115.043 20.7052C117.628 20.7052 119.723 18.6095 119.723 16.0243C119.723 13.4391 117.628 11.3435 115.043 11.3435C112.457 11.3435 110.362 13.4391 110.362 16.0243C110.362 18.6095 112.457 20.7052 115.043 20.7052Z" fill="white"/>
<path d="M122.541 32.7416C123.201 32.7416 123.736 32.2177 123.736 31.5714C123.736 27.0474 119.993 23.3799 115.377 23.3799C110.761 23.3799 107.018 27.0474 107.018 31.5714C107.018 32.2177 107.553 32.7416 108.212 32.7416H122.541Z" fill="white"/>
<circle cx="306" cy="23.5" r="23" fill="#00B2A9"/>
<rect opacity="0.01" x="292" y="8" width="28.0851" height="28.0851" fill="black"/>
<path d="M306.043 20.7052C308.628 20.7052 310.723 18.6095 310.723 16.0243C310.723 13.4391 308.628 11.3435 306.043 11.3435C303.457 11.3435 301.362 13.4391 301.362 16.0243C301.362 18.6095 303.457 20.7052 306.043 20.7052Z" fill="white"/>
<path d="M313.541 32.7416C314.201 32.7416 314.736 32.2177 314.736 31.5714C314.736 27.0474 310.993 23.3799 306.377 23.3799C301.761 23.3799 298.018 27.0474 298.018 31.5714C298.018 32.2177 298.553 32.7416 299.212 32.7416H313.541Z" fill="white"/>
<circle cx="398" cy="189" r="23" fill="#00B2A9"/>
<rect opacity="0.01" x="384" y="173.5" width="28.0851" height="28.0851" fill="black"/>
<path d="M398.043 186.205C400.628 186.205 402.723 184.109 402.723 181.524C402.723 178.939 400.628 176.843 398.043 176.843C395.457 176.843 393.362 178.939 393.362 181.524C393.362 184.109 395.457 186.205 398.043 186.205Z" fill="white"/>
<path d="M405.541 198.242C406.201 198.242 406.736 197.718 406.736 197.071C406.736 192.547 402.993 188.88 398.377 188.88C393.761 188.88 390.018 192.547 390.018 197.071C390.018 197.718 390.553 198.242 391.212 198.242H405.541Z" fill="white"/>
<circle cx="306" cy="355" r="23" fill="#00B2A9"/>
<rect opacity="0.01" x="292" y="339.5" width="28.0851" height="28.0851" fill="black"/>
<path d="M306.043 352.205C308.628 352.205 310.723 350.109 310.723 347.524C310.723 344.939 308.628 342.843 306.043 342.843C303.457 342.843 301.362 344.939 301.362 347.524C301.362 350.109 303.457 352.205 306.043 352.205Z" fill="white"/>
<path d="M313.541 364.242C314.201 364.242 314.736 363.718 314.736 363.071C314.736 358.547 310.993 354.88 306.377 354.88C301.761 354.88 298.018 358.547 298.018 363.071C298.018 363.718 298.553 364.242 299.212 364.242H313.541Z" fill="white"/>
<circle cx="115" cy="355" r="23" fill="#00B2A9"/>
<rect opacity="0.01" x="101" y="339.5" width="28.0851" height="28.0851" fill="black"/>
<path d="M115.043 352.205C117.628 352.205 119.723 350.109 119.723 347.524C119.723 344.939 117.628 342.843 115.043 342.843C112.457 342.843 110.362 344.939 110.362 347.524C110.362 350.109 112.457 352.205 115.043 352.205Z" fill="white"/>
<path d="M122.541 364.242C123.201 364.242 123.736 363.718 123.736 363.071C123.736 358.547 119.993 354.88 115.377 354.88C110.761 354.88 107.018 358.547 107.018 363.071C107.018 363.718 107.553 364.242 108.212 364.242H122.541Z" fill="white"/>
<circle cx="23" cy="189" r="23" fill="#00B2A9"/>
<rect opacity="0.01" x="9" y="173.5" width="28.0851" height="28.0851" fill="black"/>
<path d="M23.0425 186.205C25.6277 186.205 27.7234 184.109 27.7234 181.524C27.7234 178.939 25.6277 176.843 23.0425 176.843C20.4574 176.843 18.3617 178.939 18.3617 181.524C18.3617 184.109 20.4574 186.205 23.0425 186.205Z" fill="white"/>
<path d="M30.5415 198.242C31.2009 198.242 31.7356 197.718 31.7356 197.071C31.7356 192.547 27.9933 188.88 23.3769 188.88C18.7605 188.88 15.0182 192.547 15.0182 197.071C15.0182 197.718 15.5528 198.242 16.2123 198.242H30.5415Z" fill="white"/>
<defs>
<linearGradient id="paint0_linear" x1="353.945" y1="275.777" x2="211.443" y2="191.946" gradientUnits="userSpaceOnUse">
<stop stop-color="#455877"/>
<stop offset="1" stop-color="#041C2C"/>
</linearGradient>
<linearGradient id="paint1_linear" x1="163" y1="438.5" x2="307.312" y2="355.542" gradientUnits="userSpaceOnUse">
<stop stop-color="#455877"/>
<stop offset="1" stop-color="#041C2C"/>
</linearGradient>
<linearGradient id="paint2_linear" x1="398" y1="187" x2="211" y2="187" gradientUnits="userSpaceOnUse">
<stop stop-color="#455877"/>
<stop offset="1" stop-color="#041C2C"/>
</linearGradient>
<linearGradient id="paint3_linear" x1="258.5" y1="-59" x2="116.237" y2="23.4086" gradientUnits="userSpaceOnUse">
<stop stop-color="#455877"/>
<stop offset="1" stop-color="#041C2C"/>
</linearGradient>
<linearGradient id="paint4_linear" x1="67.3762" y1="103.485" x2="209.749" y2="190.612" gradientUnits="userSpaceOnUse">
<stop stop-color="#455877"/>
<stop offset="1" stop-color="#041C2C"/>
</linearGradient>
<linearGradient id="paint5_linear" x1="-62.1495" y1="188.5" x2="-62.1397" y2="190.415" gradientUnits="userSpaceOnUse">
<stop stop-color="#455877"/>
<stop offset="1" stop-color="#041C2C"/>
</linearGradient>
</defs>
</svg>
