<svg width="240" height="40" viewBox="0 0 240 40" fill="none" xmlns="http://www.w3.org/2000/svg">
<path fill-rule="evenodd" clip-rule="evenodd" d="M76.2539 21.5847L73.0623 15.3123L69.8716 21.5847H76.2539ZM77.7285 24.4456H68.4188L66.8348 27.5723C66.7939 27.6523 66.7108 27.7038 66.6205 27.7038H63.4032C63.2223 27.7038 63.1063 27.5105 63.1912 27.3514L71.1023 12.4243C71.1436 12.3456 71.2259 12.2967 71.3143 12.2967H74.877C74.9659 12.2967 75.0476 12.3456 75.089 12.4243L83.0001 27.3514C83.0845 27.5105 82.9685 27.7038 82.7876 27.7038H79.5268C79.4361 27.7038 79.3534 27.6523 79.3125 27.5723L77.7285 24.4456Z" fill="white"/>
<path fill-rule="evenodd" clip-rule="evenodd" d="M99.6293 20.0001C99.6293 16.8308 97.1204 15.2899 93.4226 15.2899H89.0208V24.7103H93.4226C97.1204 24.7103 99.6293 23.1695 99.6293 20.0001M103.217 20.0001C103.217 24.7983 99.4973 27.7032 93.6866 27.7032H85.7395C85.6071 27.7032 85.4995 27.5957 85.4995 27.4632V12.537C85.4995 12.4041 85.6071 12.2966 85.7395 12.2966H93.6866C99.4973 12.2966 103.217 15.2023 103.217 20.0001" fill="white"/>
<path fill-rule="evenodd" clip-rule="evenodd" d="M107.686 12.4318L113.431 24.2038L119.154 12.4318C119.194 12.3491 119.278 12.2971 119.37 12.2971H122.637C122.816 12.2971 122.932 12.4855 122.852 12.6451L115.325 27.5713C115.284 27.6522 115.201 27.7033 115.11 27.7033H111.686C111.595 27.7033 111.513 27.6522 111.472 27.5713L103.945 12.6451C103.864 12.4855 103.98 12.2971 104.159 12.2971H107.471C107.562 12.2971 107.646 12.3491 107.686 12.4318" fill="white"/>
<path fill-rule="evenodd" clip-rule="evenodd" d="M134.649 21.5847L131.458 15.3123L128.267 21.5847H134.649ZM136.124 24.4456H126.814L125.23 27.5723C125.189 27.6523 125.106 27.7038 125.016 27.7038H121.799C121.618 27.7038 121.502 27.5105 121.587 27.3514L129.498 12.4243C129.539 12.3456 129.621 12.2967 129.71 12.2967H133.272C133.361 12.2967 133.443 12.3456 133.484 12.4243L141.395 27.3514C141.48 27.5105 141.364 27.7038 141.183 27.7038H137.922C137.831 27.7038 137.749 27.6523 137.708 27.5723L136.124 24.4456Z" fill="white"/>
<path fill-rule="evenodd" clip-rule="evenodd" d="M161.436 12.5368V27.463C161.436 27.5955 161.329 27.7035 161.196 27.7035H158.455C158.391 27.7035 158.33 27.6777 158.284 27.6319L147.306 16.5666V27.463C147.306 27.5955 147.199 27.7035 147.066 27.7035H144.135C144.002 27.7035 143.895 27.5955 143.895 27.463V12.5368C143.895 12.4043 144.002 12.2968 144.135 12.2968H147.536C147.6 12.2968 147.662 12.3226 147.707 12.3683L158.025 22.8612V12.5368C158.025 12.4043 158.132 12.2968 158.265 12.2968H161.196C161.329 12.2968 161.436 12.4043 161.436 12.5368" fill="white"/>
<path fill-rule="evenodd" clip-rule="evenodd" d="M179.301 15.3343H174.313V27.4637C174.313 27.5957 174.206 27.7037 174.073 27.7037H171.032C170.899 27.7037 170.792 27.5957 170.792 27.4637V15.3343H164.341C164.208 15.3343 164.101 15.2268 164.101 15.0939V12.537C164.101 12.4046 164.208 12.297 164.341 12.297H180.65C180.83 12.297 180.946 12.489 180.862 12.649L179.514 15.2059C179.472 15.285 179.39 15.3343 179.301 15.3343" fill="white"/>
<path fill-rule="evenodd" clip-rule="evenodd" d="M192.494 21.5847L189.303 15.3123L186.112 21.5847H192.494ZM193.969 24.4456H184.659L183.075 27.5723C183.034 27.6523 182.951 27.7038 182.861 27.7038H179.644C179.463 27.7038 179.347 27.5105 179.432 27.3514L187.343 12.4243C187.385 12.3456 187.466 12.2967 187.555 12.2967H191.117C191.207 12.2967 191.288 12.3456 191.33 12.4243L199.241 27.3514C199.325 27.5105 199.209 27.7038 199.028 27.7038H195.767C195.677 27.7038 195.594 27.6523 195.553 27.5723L193.969 24.4456Z" fill="white"/>
<path fill-rule="evenodd" clip-rule="evenodd" d="M219.223 24.5778C217.682 26.6689 214.644 28.1876 210.463 28.1876C204.278 28.1876 200.514 25.1502 200.514 20C200.514 14.8498 204.278 11.8125 210.463 11.8125C214.08 11.8125 216.693 13.1191 218.263 14.5409C218.374 14.6427 218.361 14.8222 218.239 14.9111L215.883 16.6258C215.79 16.6942 215.663 16.6831 215.579 16.6049C214.269 15.3791 212.735 14.8058 210.485 14.8058C206.457 14.8058 204.102 16.5671 204.102 20C204.102 23.4334 206.523 25.1947 210.617 25.1947C212.928 25.1947 214.821 24.688 215.921 23.3671V21.8707H210.351C210.218 21.8707 210.111 21.7631 210.111 21.6307V19.2502C210.111 19.1174 210.218 19.0102 210.351 19.0102H218.982C219.115 19.0102 219.223 19.1174 219.223 19.2502V24.5778Z" fill="white"/>
<mask id="mask0" mask-type="alpha" maskUnits="userSpaceOnUse" x="223" y="12" width="17" height="16">
<path fill-rule="evenodd" clip-rule="evenodd" d="M223.302 12.2967H239.012V27.7038H223.302V12.2967Z" fill="white"/>
</mask>
<g mask="url(#mask0)">
<path fill-rule="evenodd" clip-rule="evenodd" d="M237.673 24.8816L238.984 27.3509C239.069 27.5105 238.953 27.7038 238.772 27.7038H223.542C223.41 27.7038 223.302 27.5954 223.302 27.4638V12.5367C223.302 12.4043 223.41 12.2967 223.542 12.2967H238.553C238.734 12.2967 238.849 12.4892 238.765 12.6492L237.46 15.1181C237.419 15.1967 237.337 15.2461 237.248 15.2461H226.802V18.4154H236.708C236.841 18.4154 236.948 18.5229 236.948 18.6554V21.1247C236.948 21.2576 236.841 21.3647 236.708 21.3647H226.802V24.7541H237.461C237.55 24.7541 237.631 24.8029 237.673 24.8816" fill="white"/>
</g>
<path fill-rule="evenodd" clip-rule="evenodd" d="M13.2858 33.4802C14.056 32.1575 15.7529 31.7108 17.0756 32.4806C18.3982 33.2508 18.8458 34.9482 18.0756 36.2704C17.3049 37.5931 15.6084 38.0411 14.2858 37.2699C12.9631 36.4997 12.5156 34.8037 13.2858 33.4802" fill="#0072CE"/>
<mask id="mask1" mask-type="alpha" maskUnits="userSpaceOnUse" x="0" y="34" width="6" height="7">
<path fill-rule="evenodd" clip-rule="evenodd" d="M0 34.8258H5.17419V40.0002H0V34.8258Z" fill="white"/>
</mask>
<g mask="url(#mask1)">
<path fill-rule="evenodd" clip-rule="evenodd" d="M0.351954 36.1108C1.07107 34.877 2.65462 34.4588 3.88884 35.1775C5.12351 35.8975 5.54129 37.4806 4.82218 38.7148C4.10307 39.9499 2.51951 40.3672 1.28529 39.6481C0.0506209 38.929 -0.367157 37.3455 0.351954 36.1108" fill="#0072CE"/>
</g>
<path fill-rule="evenodd" clip-rule="evenodd" d="M39.6326 36.1108C40.3517 34.877 41.9352 34.4588 43.1699 35.1775C44.4041 35.8975 44.8219 37.4806 44.1032 38.7148C43.3837 39.9499 41.8001 40.3672 40.5659 39.6481C39.3312 38.929 38.9135 37.3455 39.6326 36.1108" fill="#0072CE"/>
<path fill-rule="evenodd" clip-rule="evenodd" d="M6.57937 24.6859C7.40115 23.2752 9.21093 22.7979 10.622 23.6201C12.0327 24.4414 12.51 26.2508 11.6883 27.6619C10.8665 29.0726 9.05671 29.5503 7.6456 28.729C6.23493 27.9068 5.7576 26.0974 6.57937 24.6859" fill="#0072CE"/>
<path fill-rule="evenodd" clip-rule="evenodd" d="M32.7664 24.6859C33.5882 23.2752 35.398 22.7979 36.8091 23.6201C38.2198 24.4414 38.6971 26.2508 37.8753 27.6619C37.0536 29.0726 35.2438 29.5503 33.8331 28.729C32.4224 27.9068 31.9447 26.0974 32.7664 24.6859" fill="#0072CE"/>
<path fill-rule="evenodd" clip-rule="evenodd" d="M12.8068 13.2612C13.7312 11.6741 15.7677 11.1367 17.3544 12.0616C18.9419 12.9861 19.4788 15.0221 18.5544 16.6092C17.6299 18.1963 15.5939 18.7336 14.0068 17.8087C12.4192 16.8843 11.8824 14.8483 12.8068 13.2612" fill="#0072CE"/>
<path fill-rule="evenodd" clip-rule="evenodd" d="M25.9004 13.2612C26.8252 11.6741 28.8612 11.1367 30.4484 12.0616C32.0355 12.9861 32.5724 15.0221 31.6479 16.6092C30.7235 18.1963 28.6875 18.7336 27.1004 17.8087C25.5128 16.8843 24.9759 14.8483 25.9004 13.2612" fill="#0072CE"/>
<mask id="mask2" mask-type="alpha" maskUnits="userSpaceOnUse" x="18" y="0" width="8" height="8">
<path fill-rule="evenodd" clip-rule="evenodd" d="M18.5315 0.000244141H25.9234V7.39235H18.5315V0.000244141Z" fill="white"/>
</mask>
<g mask="url(#mask2)">
<path fill-rule="evenodd" clip-rule="evenodd" d="M19.0343 1.83627C20.0618 0.072719 22.324 -0.52417 24.0876 0.502941C25.8507 1.5305 26.448 3.79272 25.4205 5.55627C24.3934 7.31983 22.1312 7.91672 20.3676 6.88961C18.604 5.86205 18.0072 3.59983 19.0343 1.83627" fill="#0072CE"/>
</g>
<path fill-rule="evenodd" clip-rule="evenodd" d="M26.3793 33.4802C27.15 32.1575 28.8464 31.7108 30.1691 32.4806C31.4917 33.2508 31.9393 34.9482 31.1691 36.2704C30.3984 37.5931 28.702 38.0411 27.3793 37.2699C26.0566 36.4997 25.6091 34.8037 26.3793 33.4802" fill="#0072CE"/>
</svg>
